<mxfile host="app.diagrams.net" agent="Mozilla/5.0 (Windows NT 10.0; Win64; x64) AppleWebKit/537.36 (KHTML, like Gecko) Chrome/133.0.0.0 Safari/537.36" version="26.0.15">
  <diagram name="PÃ¡gina-1" id="C5kjd6cDE3Y_gsEUK1GT">
    <mxGraphModel dx="1687" dy="878" grid="1" gridSize="10" guides="1" tooltips="1" connect="1" arrows="1" fold="1" page="1" pageScale="1" pageWidth="827" pageHeight="1169" math="0" shadow="0">
      <root>
        <mxCell id="0" />
        <mxCell id="1" parent="0" />
        <mxCell id="xPzpu5idgq0bthwMzAwO-2" value="" style="rounded=0;whiteSpace=wrap;html=1;" vertex="1" parent="1">
          <mxGeometry x="74" y="130" width="680" height="120" as="geometry" />
        </mxCell>
        <mxCell id="xPzpu5idgq0bthwMzAwO-3" value="TITLE" style="rounded=0;whiteSpace=wrap;html=1;" vertex="1" parent="1">
          <mxGeometry x="100" y="160" width="120" height="60" as="geometry" />
        </mxCell>
        <mxCell id="xPzpu5idgq0bthwMzAwO-4" value="LEFT SIDEBAR" style="rounded=0;whiteSpace=wrap;html=1;" vertex="1" parent="1">
          <mxGeometry x="74" y="250" width="120" height="460" as="geometry" />
        </mxCell>
        <mxCell id="xPzpu5idgq0bthwMzAwO-5" value="NAVIGATION BAR" style="rounded=0;whiteSpace=wrap;html=1;" vertex="1" parent="1">
          <mxGeometry x="320" y="160" width="400" height="60" as="geometry" />
        </mxCell>
        <mxCell id="xPzpu5idgq0bthwMzAwO-6" value="RIGHT SIDEBAR" style="rounded=0;whiteSpace=wrap;html=1;" vertex="1" parent="1">
          <mxGeometry x="634" y="250" width="120" height="460" as="geometry" />
        </mxCell>
        <mxCell id="xPzpu5idgq0bthwMzAwO-12" style="edgeStyle=orthogonalEdgeStyle;rounded=0;orthogonalLoop=1;jettySize=auto;html=1;exitX=0.5;exitY=1;exitDx=0;exitDy=0;" edge="1" parent="1" source="xPzpu5idgq0bthwMzAwO-8">
          <mxGeometry relative="1" as="geometry">
            <mxPoint x="414.17647058823513" y="810" as="targetPoint" />
          </mxGeometry>
        </mxCell>
        <mxCell id="xPzpu5idgq0bthwMzAwO-8" value="FOOTER" style="rounded=0;whiteSpace=wrap;html=1;" vertex="1" parent="1">
          <mxGeometry x="74" y="710" width="680" height="100" as="geometry" />
        </mxCell>
        <mxCell id="xPzpu5idgq0bthwMzAwO-9" value="MAIN SECTION" style="rounded=0;whiteSpace=wrap;html=1;" vertex="1" parent="1">
          <mxGeometry x="194" y="250" width="440" height="460" as="geometry" />
        </mxCell>
        <mxCell id="xPzpu5idgq0bthwMzAwO-10" value="HEADER 2" style="rounded=0;whiteSpace=wrap;html=1;" vertex="1" parent="1">
          <mxGeometry x="210" y="280" width="120" height="60" as="geometry" />
        </mxCell>
        <mxCell id="xPzpu5idgq0bthwMzAwO-11" value="YEAR AND NAME" style="rounded=0;whiteSpace=wrap;html=1;" vertex="1" parent="1">
          <mxGeometry x="260" y="720" width="320" height="30" as="geometry" />
        </mxCell>
        <mxCell id="xPzpu5idgq0bthwMzAwO-14" value="LAST MODIFICATION DATE" style="rounded=0;whiteSpace=wrap;html=1;" vertex="1" parent="1">
          <mxGeometry x="260" y="770" width="320" height="30" as="geometry" />
        </mxCell>
        <mxCell id="xPzpu5idgq0bthwMzAwO-15" value="" style="rounded=0;whiteSpace=wrap;html=1;" vertex="1" parent="1">
          <mxGeometry x="80" y="1050" width="680" height="120" as="geometry" />
        </mxCell>
        <mxCell id="xPzpu5idgq0bthwMzAwO-16" value="TITLE" style="rounded=0;whiteSpace=wrap;html=1;" vertex="1" parent="1">
          <mxGeometry x="106" y="1080" width="120" height="60" as="geometry" />
        </mxCell>
        <mxCell id="xPzpu5idgq0bthwMzAwO-18" value="NAVIGATION BAR" style="rounded=0;whiteSpace=wrap;html=1;" vertex="1" parent="1">
          <mxGeometry x="326" y="1080" width="400" height="60" as="geometry" />
        </mxCell>
        <mxCell id="xPzpu5idgq0bthwMzAwO-19" value="RIGHT SIDEBAR" style="rounded=0;whiteSpace=wrap;html=1;" vertex="1" parent="1">
          <mxGeometry x="80" y="1880" width="680" height="250" as="geometry" />
        </mxCell>
        <mxCell id="xPzpu5idgq0bthwMzAwO-21" value="FOOTER" style="rounded=0;whiteSpace=wrap;html=1;" vertex="1" parent="1">
          <mxGeometry x="80" y="2130" width="680" height="100" as="geometry" />
        </mxCell>
        <mxCell id="xPzpu5idgq0bthwMzAwO-22" value="MAIN SECTION" style="rounded=0;whiteSpace=wrap;html=1;" vertex="1" parent="1">
          <mxGeometry x="80" y="1170" width="680" height="460" as="geometry" />
        </mxCell>
        <mxCell id="xPzpu5idgq0bthwMzAwO-23" value="HEADER 2" style="rounded=0;whiteSpace=wrap;html=1;" vertex="1" parent="1">
          <mxGeometry x="216" y="1200" width="120" height="60" as="geometry" />
        </mxCell>
        <mxCell id="xPzpu5idgq0bthwMzAwO-26" value="LEFT SIDEBAR" style="rounded=0;whiteSpace=wrap;html=1;" vertex="1" parent="1">
          <mxGeometry x="80" y="1630" width="680" height="250" as="geometry" />
        </mxCell>
        <mxCell id="xPzpu5idgq0bthwMzAwO-28" style="edgeStyle=orthogonalEdgeStyle;rounded=0;orthogonalLoop=1;jettySize=auto;html=1;exitX=0.5;exitY=1;exitDx=0;exitDy=0;" edge="1" parent="1">
          <mxGeometry relative="1" as="geometry">
            <mxPoint x="424.17647058823513" y="2248.82" as="targetPoint" />
            <mxPoint x="424" y="2248.82" as="sourcePoint" />
          </mxGeometry>
        </mxCell>
        <mxCell id="xPzpu5idgq0bthwMzAwO-29" value="YEAR AND NAME" style="rounded=0;whiteSpace=wrap;html=1;" vertex="1" parent="1">
          <mxGeometry x="254" y="2140" width="320" height="30" as="geometry" />
        </mxCell>
        <mxCell id="xPzpu5idgq0bthwMzAwO-30" value="LAST MODIFICATION DATE" style="rounded=0;whiteSpace=wrap;html=1;" vertex="1" parent="1">
          <mxGeometry x="254" y="2190" width="320" height="30" as="geometry" />
        </mxCell>
        <mxCell id="xPzpu5idgq0bthwMzAwO-31" value="BLANK" style="rounded=0;whiteSpace=wrap;html=1;" vertex="1" parent="1">
          <mxGeometry x="74" y="370" width="120" height="60" as="geometry" />
        </mxCell>
        <mxCell id="xPzpu5idgq0bthwMzAwO-32" value="BLANK" style="rounded=0;whiteSpace=wrap;html=1;" vertex="1" parent="1">
          <mxGeometry x="634" y="370" width="120" height="60" as="geometry" />
        </mxCell>
        <mxCell id="xPzpu5idgq0bthwMzAwO-34" value="IMAGE" style="rounded=0;whiteSpace=wrap;html=1;" vertex="1" parent="1">
          <mxGeometry x="240" y="370" width="350" height="60" as="geometry" />
        </mxCell>
        <mxCell id="xPzpu5idgq0bthwMzAwO-35" value="INTRO" style="rounded=0;whiteSpace=wrap;html=1;" vertex="1" parent="1">
          <mxGeometry x="240" y="430" width="350" height="60" as="geometry" />
        </mxCell>
        <mxCell id="xPzpu5idgq0bthwMzAwO-36" value="" style="rounded=0;whiteSpace=wrap;html=1;" vertex="1" parent="1">
          <mxGeometry x="240" y="525" width="350" height="115" as="geometry" />
        </mxCell>
        <mxCell id="xPzpu5idgq0bthwMzAwO-37" value="POTENTIAL QUESTIONS" style="rounded=0;whiteSpace=wrap;html=1;" vertex="1" parent="1">
          <mxGeometry x="290" y="530" width="250" height="30" as="geometry" />
        </mxCell>
        <mxCell id="xPzpu5idgq0bthwMzAwO-38" value="PICTURE" style="rounded=0;whiteSpace=wrap;html=1;" vertex="1" parent="1">
          <mxGeometry x="258" y="590" width="62" height="40" as="geometry" />
        </mxCell>
        <mxCell id="xPzpu5idgq0bthwMzAwO-39" value="PICTURE" style="rounded=0;whiteSpace=wrap;html=1;" vertex="1" parent="1">
          <mxGeometry x="383" y="590" width="62" height="40" as="geometry" />
        </mxCell>
        <mxCell id="xPzpu5idgq0bthwMzAwO-40" value="PICTURE" style="rounded=0;whiteSpace=wrap;html=1;" vertex="1" parent="1">
          <mxGeometry x="495" y="590" width="62" height="40" as="geometry" />
        </mxCell>
        <mxCell id="xPzpu5idgq0bthwMzAwO-41" value="PAGE" style="rounded=0;whiteSpace=wrap;html=1;" vertex="1" parent="1">
          <mxGeometry x="260" y="565" width="60" height="15" as="geometry" />
        </mxCell>
        <mxCell id="xPzpu5idgq0bthwMzAwO-42" value="PAGE" style="rounded=0;whiteSpace=wrap;html=1;" vertex="1" parent="1">
          <mxGeometry x="383" y="565" width="60" height="15" as="geometry" />
        </mxCell>
        <mxCell id="xPzpu5idgq0bthwMzAwO-43" value="PAGE" style="rounded=0;whiteSpace=wrap;html=1;" vertex="1" parent="1">
          <mxGeometry x="495" y="565" width="60" height="15" as="geometry" />
        </mxCell>
        <mxCell id="xPzpu5idgq0bthwMzAwO-44" value="IMAGE" style="rounded=0;whiteSpace=wrap;html=1;" vertex="1" parent="1">
          <mxGeometry x="130" y="1280" width="580" height="280" as="geometry" />
        </mxCell>
        <mxCell id="xPzpu5idgq0bthwMzAwO-45" value="INTRO" style="rounded=0;whiteSpace=wrap;html=1;" vertex="1" parent="1">
          <mxGeometry x="180" y="1670" width="460" height="160" as="geometry" />
        </mxCell>
        <mxCell id="xPzpu5idgq0bthwMzAwO-46" value="EXTRA PICTURE" style="rounded=0;whiteSpace=wrap;html=1;" vertex="1" parent="1">
          <mxGeometry x="495" y="1680" width="136" height="140" as="geometry" />
        </mxCell>
        <mxCell id="xPzpu5idgq0bthwMzAwO-47" value="" style="rounded=0;whiteSpace=wrap;html=1;" vertex="1" parent="1">
          <mxGeometry x="150" y="1910" width="540" height="202.5" as="geometry" />
        </mxCell>
        <mxCell id="xPzpu5idgq0bthwMzAwO-48" value="POTENTIAL QUESTIONS" style="rounded=0;whiteSpace=wrap;html=1;" vertex="1" parent="1">
          <mxGeometry x="293" y="1930" width="250" height="30" as="geometry" />
        </mxCell>
        <mxCell id="xPzpu5idgq0bthwMzAwO-49" value="PICTURE" style="rounded=0;whiteSpace=wrap;html=1;" vertex="1" parent="1">
          <mxGeometry x="220" y="2025" width="100" height="65" as="geometry" />
        </mxCell>
        <mxCell id="xPzpu5idgq0bthwMzAwO-52" value="PAGE" style="rounded=0;whiteSpace=wrap;html=1;" vertex="1" parent="1">
          <mxGeometry x="220" y="1980" width="100" height="40" as="geometry" />
        </mxCell>
        <mxCell id="xPzpu5idgq0bthwMzAwO-60" value="PICTURE" style="rounded=0;whiteSpace=wrap;html=1;" vertex="1" parent="1">
          <mxGeometry x="368" y="2025" width="100" height="65" as="geometry" />
        </mxCell>
        <mxCell id="xPzpu5idgq0bthwMzAwO-61" value="PAGE" style="rounded=0;whiteSpace=wrap;html=1;" vertex="1" parent="1">
          <mxGeometry x="368" y="1980" width="100" height="40" as="geometry" />
        </mxCell>
        <mxCell id="xPzpu5idgq0bthwMzAwO-62" value="PICTURE" style="rounded=0;whiteSpace=wrap;html=1;" vertex="1" parent="1">
          <mxGeometry x="520" y="2025" width="100" height="65" as="geometry" />
        </mxCell>
        <mxCell id="xPzpu5idgq0bthwMzAwO-63" value="PAGE" style="rounded=0;whiteSpace=wrap;html=1;" vertex="1" parent="1">
          <mxGeometry x="520" y="1980" width="100" height="40" as="geometry" />
        </mxCell>
        <mxCell id="xPzpu5idgq0bthwMzAwO-64" value="WIDE SCREEN" style="rounded=0;whiteSpace=wrap;html=1;" vertex="1" parent="1">
          <mxGeometry x="248" y="20" width="412" height="60" as="geometry" />
        </mxCell>
        <mxCell id="xPzpu5idgq0bthwMzAwO-67" value="SMALL SCREEN" style="rounded=0;whiteSpace=wrap;html=1;" vertex="1" parent="1">
          <mxGeometry x="207" y="880" width="412" height="60" as="geometry" />
        </mxCell>
      </root>
    </mxGraphModel>
  </diagram>
</mxfile>
